<!DOCTYPE svg PUBLIC "-//W3C//DTD SVG 20010904//EN" "http://www.w3.org/TR/2001/REC-SVG-20010904/DTD/svg10.dtd">
<svg version="1.0" xmlns="http://www.w3.org/2000/svg" width="197px" height="199px" viewBox="0 0 1970 1990" preserveAspectRatio="xMidYMid meet">
<g id="layer1" fill="#66ccff" stroke="none">
 <path d="M242 1763 c-33 -13 -33 -42 1 -115 74 -161 237 -302 413 -357 42 -14 72 -8 164 32 19 8 72 21 117 27 102 15 231 0 318 -37 85 -35 96 -37 149 -19 99 34 150 66 253 161 71 65 120 132 152 208 26 60 26 62 1 87 -20 20 -33 20 -787 19 -423 0 -774 -3 -781 -6z"/>
 <path d="M940 1260 c-82 -11 -212 -62 -239 -94 -7 -9 -19 -16 -25 -16 -16 0 -87 -76 -123 -133 -31 -48 -72 -140 -93 -212 -13 -45 -9 -178 8 -239 21 -78 84 -187 143 -250 62 -67 149 -120 256 -157 87 -30 228 -28 325 5 93 31 221 115 253 166 13 21 29 41 35 45 15 9 64 111 78 163 7 23 17 59 23 80 11 39 8 122 -8 202 -11 56 -70 184 -94 206 -11 9 -19 22 -19 29 0 34 -167 148 -264 180 -80 26 -174 35 -256 25z m247 -203 c29 -15 68 -41 88 -59 33 -28 95 -109 95 -122 0 -3 -157 -6 -350 -6 -192 0 -350 3 -350 6 0 37 103 140 170 171 77 36 112 42 210 39 69 -2 95 -7 137 -29z"/>
 </g>

</svg>